<svg version="1.1" id="Layer_1" xmlns="http://www.w3.org/2000/svg" xmlns:xlink="http://www.w3.org/1999/xlink" x="0px" y="0px" width="100%" viewBox="0 0 709 714" enable-background="new 0 0 709 714" xml:space="preserve">
    <path fill="#000000" opacity="1.000000" stroke="none" d=" M388.715515,559.292542  C395.858032,576.564758 400.731445,594.044922 399.890015,612.485535  C399.000763,631.974548 394.237579,650.348022 379.757721,664.626770  C372.543488,671.740723 363.635620,675.606873 353.344055,676.028870  C357.682343,658.780518 357.992401,641.875916 355.132812,624.657288  C351.569916,603.204163 344.295044,583.143494 335.260284,563.479553  C324.508667,540.079041 310.508820,518.715393 295.375000,498.080444  C288.234009,488.343658 279.942871,479.419647 271.837250,470.429993  C264.406219,462.188629 256.692474,454.183868 248.805695,446.375488  C231.825745,429.564392 213.531540,414.233002 193.460312,401.297852  C179.301880,392.173279 164.583038,383.804077 149.593872,376.111969  C131.242249,366.694305 111.821968,360.176666 91.283775,356.841583  C74.215172,354.069855 57.499313,354.013275 40.883682,358.999115  C39.059284,359.546539 37.297398,360.302368 34.971783,361.158325  C35.494003,351.498322 37.946163,342.865509 43.340393,335.172272  C51.627148,323.353790 63.832802,318.196259 77.432526,316.076721  C97.812172,312.900574 117.673088,315.948975 137.345810,321.649445  C160.973953,328.496002 182.888931,339.000214 203.952866,351.478149  C208.242950,354.019501 211.946381,352.679718 215.477661,349.965302  C216.394302,349.260712 217.156982,348.354034 217.980606,347.530426  C273.481232,292.030914 328.931427,236.480759 384.542145,181.091766  C391.609924,174.052155 391.733734,167.437912 381.843567,162.166260  C358.578125,149.765320 335.161499,137.769287 309.541168,131.063339  C297.709595,127.966522 285.500854,126.311226 273.464142,123.997002  C272.404816,123.793343 271.353210,123.549850 269.328461,123.118141  C275.100861,117.364922 280.245911,112.243233 285.383789,107.114388  C290.455139,102.051956 296.233185,97.500481 300.390442,91.773399  C304.753571,85.762749 310.457672,85.951988 315.822174,87.207916  C332.541931,91.122314 349.239716,95.318268 365.606293,100.481857  C375.176697,103.501289 384.121155,108.526581 393.303619,112.744377  C397.574829,114.706284 401.524078,116.387955 405.577179,112.018204  C409.916443,107.339935 409.215240,101.208031 403.608734,98.196747  C381.845245,86.507446 358.775391,78.392319 334.709869,73.002823  C330.927063,72.155663 327.130615,71.369339 323.012482,70.484406  C323.377075,69.809433 323.641693,68.879730 324.238190,68.280357  C335.403168,57.061527 346.277710,45.525196 357.890198,34.787666  C371.299927,22.388309 387.351288,15.294054 405.751343,14.000602  C410.666290,13.655099 415.585083,13.020497 420.498322,13.054815  C440.323639,13.193290 459.397949,17.616558 477.839264,24.477449  C501.255493,33.189224 523.346863,44.686573 543.785339,59.074219  C555.184387,67.098557 566.382385,75.522232 576.903625,84.650406  C589.511841,95.589279 602.007812,106.824852 613.260925,119.114456  C626.232605,133.280930 638.564087,148.187653 649.736389,163.801300  C659.525330,177.481735 668.181824,192.151215 675.793884,207.166885  C686.042114,227.382462 694.385620,248.523880 696.925537,271.356812  C698.050232,281.468109 699.482483,291.756561 698.749573,301.817017  C697.418579,320.087555 692.574890,337.427399 679.287354,351.241302  C670.679688,360.189941 662.209595,369.270874 652.844299,379.173950  C651.661072,376.206573 650.575867,374.220154 650.066650,372.095642  C644.316650,348.106445 634.625671,325.862122 621.100891,305.224884  C618.774475,301.674988 615.521729,299.093414 612.045593,300.341248  C609.044800,301.418427 606.315430,304.921997 604.869751,308.010040  C604.052979,309.754395 605.533691,313.175995 606.890869,315.244019  C621.564087,337.602173 630.416748,362.260254 635.881958,388.232422  C636.717163,392.201630 636.072021,395.930115 632.418457,399.329712  C622.177734,408.858582 612.503723,418.996338 602.596375,428.884125  C601.456970,430.021271 600.255737,431.096344 598.359863,432.881042  C597.462036,428.531006 596.542358,425.034973 596.040283,421.479950  C593.572632,404.007111 588.144287,387.406921 581.591492,371.104858  C571.409973,345.775269 556.504822,323.256256 540.056946,301.719177  C533.801575,293.528198 526.778442,285.889709 519.744385,278.335480  C510.136749,268.017426 500.302521,257.902130 490.325409,247.940338  C485.939941,243.561569 481.167114,239.501740 476.200684,235.791687  C470.330414,231.406418 467.684875,231.832870 462.670654,236.845520  C430.614838,268.891174 398.561188,300.939026 366.511047,332.990356  C342.002258,357.500061 317.576874,382.094086 292.923553,406.457489  C288.468201,410.860504 288.151978,416.884888 292.876678,421.623138  C312.867004,441.670807 330.927094,463.364075 347.305359,486.525482  C361.298981,506.314545 373.886658,526.846680 384.259827,548.735413  C385.838135,552.065857 387.073761,555.558655 388.715515,559.292542 M505.955536,156.442154  C501.232574,152.721207 496.449585,149.073212 491.806488,145.255096  C488.394775,142.449554 482.715912,140.966064 478.278473,146.048492  C475.202484,149.571533 475.487457,154.741089 479.866882,158.344971  C488.798248,165.694733 498.097443,172.632797 506.656036,180.390335  C515.406555,188.321945 523.784424,196.730392 531.711914,205.485641  C539.577209,214.172256 546.546936,223.663086 554.165833,232.582214  C558.440002,237.585846 562.607544,236.056793 565.620728,233.797379  C569.516052,230.876495 570.579407,224.756699 567.570679,221.142349  C558.156616,209.833481 549.000488,198.252960 538.857971,187.623535  C528.606628,176.880112 517.297241,167.146317 505.955536,156.442154 z"/>
    <path fill="#000000" opacity="1.000000" stroke="none" d=" M318.268860,568.693848  C327.666992,587.000244 334.521851,605.930054 337.696899,625.795959  C340.518097,643.448181 341.191101,661.599976 333.652740,678.446411  C326.764832,693.839294 314.387756,703.534668 297.713593,706.950867  C271.388641,712.344238 246.648270,705.284302 222.208633,696.620239  C202.073334,689.481995 183.627029,678.960632 166.170578,666.877075  C153.246994,657.931274 141.045944,647.922668 128.724747,638.133606  C122.431633,633.133789 116.581963,627.575806 110.261414,622.032959  C101.711601,630.647034 92.809296,639.135681 84.472473,648.147461  C75.681412,657.650269 56.470886,656.835876 51.489204,640.757935  C49.166847,633.262634 51.451557,625.950012 57.322289,620.145813  C66.207558,611.361206 75.013298,602.496094 83.848656,593.669373  C65.074242,572.089478 48.785126,548.892761 35.219650,523.743591  C24.412548,503.708252 15.891369,482.787811 11.383456,460.516754  C7.527961,441.468964 6.469351,422.011414 14.316758,403.643707  C20.726643,388.640656 32.587563,378.801147 48.657990,375.084930  C67.202194,370.796600 85.684143,372.419006 103.887489,377.447357  C136.534195,386.465424 165.969070,402.040192 192.776657,422.467407  C207.041077,433.336731 221.129593,444.610260 234.095261,456.963257  C247.835327,470.054016 260.572479,484.276337 272.986786,498.661102  C291.200867,519.766052 306.178925,543.102783 318.268860,568.693848 M208.806244,565.724121  C215.706024,562.778748 221.485580,558.406067 223.858978,551.095459  C227.134567,541.006042 224.624191,531.190552 219.030655,522.878906  C213.140808,514.126953 205.982254,506.135132 198.733170,498.416840  C190.891464,490.067413 181.118698,484.457306 169.964844,481.426880  C158.186737,478.226837 146.867355,483.064667 141.601730,493.923706  C135.979095,505.518951 140.227280,515.776306 146.222275,525.820007  C148.002594,528.802612 149.242599,528.375732 151.282867,526.257751  C155.670532,521.702820 160.349457,517.423401 164.642197,512.784058  C167.223679,509.994171 169.704315,509.432098 173.331406,510.685181  C182.792068,513.953674 188.320206,521.118103 192.746414,529.430176  C195.155045,533.953308 194.582947,538.134521 190.721039,541.847229  C185.736328,546.639221 180.930206,551.617065 176.040192,556.521851  C184.399536,564.084351 193.223724,566.654846 208.806244,565.724121 M209.984573,462.475739  C206.091904,459.251831 202.341583,455.834595 198.278000,452.842834  C188.785019,445.853851 179.243439,438.919800 169.505341,432.280609  C165.964127,429.866272 160.594116,431.579681 158.435547,435.048370  C156.329422,438.432770 157.302124,444.565826 160.489548,446.892883  C169.743179,453.648712 179.386002,459.917999 188.257950,467.137787  C198.440399,475.424011 208.349945,484.132629 217.655106,493.384827  C226.489456,502.168884 234.360565,511.918610 242.714676,521.190186  C246.407501,525.288513 252.508942,526.344238 255.867142,523.636658  C259.928619,520.362061 260.207703,514.506104 256.144379,509.747131  C250.600418,503.253906 245.050278,496.731995 239.051804,490.668549  C229.730087,481.245880 220.028564,472.198944 209.984573,462.475739 M79.515480,492.016479  C83.226334,498.408203 86.970055,504.781097 90.637238,511.197784  C93.375648,515.989380 98.407944,517.580688 103.020103,515.008728  C107.218536,512.667480 108.491875,506.556976 105.627144,502.114441  C94.330879,484.596558 84.530159,466.402435 81.284439,445.473907  C80.278397,438.986847 80.926285,432.627686 85.361786,427.048889  C89.881432,421.364227 88.375076,415.380249 82.164467,412.665527  C77.969612,410.831940 73.312286,412.546844 70.147064,417.584015  C64.682419,426.280548 62.650589,435.514313 63.785538,446.049500  C65.551048,462.437866 72.022057,476.964996 79.515480,492.016479 M285.499969,626.997742  C282.434052,628.318970 279.430786,629.818298 276.288818,630.923340  C270.339600,633.015747 267.848053,636.372437 269.054230,641.134888  C270.226379,645.763123 276.207245,649.371643 281.141449,647.893372  C295.634369,643.551636 306.674866,631.523438 307.092041,615.367554  C307.361694,604.927002 305.270538,594.978333 301.850800,585.345215  C299.680939,579.232910 296.631989,573.294495 293.095703,567.850769  C290.439209,563.761353 286.047852,564.714050 282.460022,567.247437  C278.989319,569.698181 278.196838,573.086121 279.622223,577.200317  C282.705627,586.100342 286.364349,594.905701 288.305359,604.063904  C289.862274,611.410095 290.667725,619.379272 285.499969,626.997742 M162.366150,592.031189  C168.163254,596.790283 173.859024,601.680115 179.784805,606.273132  C186.192017,611.239319 192.608368,616.256714 199.460770,620.549255  C201.676697,621.937439 205.324081,621.495422 208.243179,621.189392  C211.783493,620.818237 210.750854,617.688293 211.059921,615.346741  C211.280807,613.673340 212.058060,612.073425 212.773712,609.864563  C211.773682,608.972351 210.484863,607.666260 209.042206,606.560974  C200.725327,600.189331 192.267990,593.996399 184.063766,587.483887  C177.413467,582.204834 171.090378,576.515015 164.514175,571.139465  C163.715958,570.487061 161.630600,570.070618 161.183319,570.539124  C157.596451,574.296326 154.260040,578.292664 151.091217,581.935120  C154.749802,585.412720 158.199112,588.691406 162.366150,592.031189 z"/>
    <path fill="#000000" opacity="1.000000" stroke="none" d=" M415.998840,589.165222  C413.133667,574.671143 409.350006,560.885681 402.970642,547.999939  C396.284882,534.495239 389.826111,520.815186 382.122894,507.894531  C374.128174,494.484894 365.080658,481.661255 355.892334,469.018311  C348.719971,459.149384 340.808105,449.795319 332.890778,440.496918  C325.528076,431.849915 317.723663,423.579041 309.875549,414.878540  C310.879791,413.796722 311.940094,412.577667 313.079681,411.437836  C363.866760,360.641663 414.693085,309.884491 465.384674,258.993225  C468.924316,255.439621 471.090424,255.349304 474.602570,258.952637  C481.999237,266.541290 490.156677,273.395325 497.459839,281.066864  C517.260864,301.866669 535.822571,323.745636 550.680054,348.411652  C564.619568,371.553680 573.698730,396.741547 580.013794,422.959961  C582.861511,434.782990 584.509399,446.698608 584.045898,458.907806  C583.680725,468.526672 580.939575,476.741943 573.835144,483.810028  C521.731628,535.646545 469.826324,587.682190 417.850098,639.646729  C416.612610,640.883972 415.277710,642.023743 413.297913,643.007080  C417.728943,625.263672 418.865662,607.524963 415.998840,589.165222 z"/>
    <path fill="#000000" opacity="1.000000" stroke="none" d=" M113.750000,252.750000  C146.876694,219.624374 179.821869,186.816711 212.572418,153.815903  C219.133316,147.204834 227.411728,144.460953 235.897827,143.234940  C247.083832,141.618881 258.571594,140.631149 269.815826,141.296417  C280.692963,141.939957 291.647919,144.233841 302.174927,147.200119  C322.924347,153.046783 342.552338,161.846542 361.680664,171.813644  C365.658447,173.886353 365.631012,174.957870 362.747070,177.836105  C311.674713,228.806549 260.641266,279.816071 209.708221,330.925598  C207.429962,333.211761 205.728363,333.124146 203.351318,331.771973  C184.603821,321.107300 165.157700,311.875763 144.398590,305.977509  C132.189789,302.508606 119.567856,300.439789 107.073128,298.047363  C95.809715,295.890717 84.545898,296.594269 73.349365,298.951416  C71.796371,299.278381 70.115227,298.996552 67.495781,298.996552  C83.238693,283.256256 98.369347,268.128143 113.750000,252.750000 z"/>
</svg>