<svg version="1.1" id="Layer_1" xmlns="http://www.w3.org/2000/svg" xmlns:xlink="http://www.w3.org/1999/xlink" x="0px" y="0px"
	 width="100%" viewBox="0 0 1004 771" enable-background="new 0 0 1004 771" xml:space="preserve">
<path fill="#000000" opacity="1.000000" stroke="none" 
	d="
M186.002563,547.982422 
	C186.002563,437.825012 186.002563,328.165649 186.002563,217.990875 
	C187.542023,217.990875 188.810394,217.990952 190.078751,217.990875 
	C312.380188,217.983704 434.681610,217.986633 556.983032,217.929916 
	C561.575562,217.927780 566.168091,217.163651 570.760071,217.170044 
	C571.837769,217.171539 573.848206,218.874344 573.839417,219.778946 
	C573.776733,226.201828 573.404907,232.629669 572.852173,239.031784 
	C572.761658,240.079987 571.484436,241.340820 570.434326,241.944672 
	C547.528503,255.116470 529.053162,272.978027 514.028076,294.606781 
	C513.093872,295.951538 510.643738,296.893799 508.886047,296.914093 
	C493.392120,297.092987 477.895203,296.985474 462.399353,297.030670 
	C440.720795,297.093933 420.895905,303.164978 403.948822,316.780640 
	C386.194946,331.044495 375.107758,349.444550 370.889343,372.151031 
	C365.757721,399.772797 372.698669,424.404144 389.714935,445.760651 
	C402.582336,461.910095 419.558075,472.805359 440.462341,477.119629 
	C461.847443,481.533051 483.373444,479.425659 504.841400,479.737213 
	C510.667023,479.821747 513.991272,481.353119 517.489014,486.413605 
	C530.767761,505.625031 547.577942,521.324219 567.981628,532.938721 
	C571.371338,534.868286 573.220825,537.121582 573.128296,541.387878 
	C573.004639,547.087585 573.785217,552.806946 574.196167,558.790039 
	C444.636139,558.790039 315.580688,558.790039 186.002563,558.790039 
	C186.002563,555.361084 186.002563,551.920837 186.002563,547.982422 
z"/>
<path fill="#000000" opacity="1.000000" stroke="none" 
	d="
M683.646057,760.787720 
	C674.033203,767.388916 664.180969,771.934937 652.430664,771.040100 
	C639.353699,770.044189 628.820007,764.017700 620.283875,754.584961 
	C611.194763,744.541260 605.387329,732.653992 603.506287,719.132385 
	C602.399719,711.177429 601.704590,703.159119 601.023499,695.152344 
	C599.615540,678.600159 598.315186,662.038696 597.025879,645.476685 
	C596.603394,640.050781 596.374207,634.610107 596.017639,629.178711 
	C595.001770,613.706848 594.020691,598.232483 592.920471,582.766602 
	C592.020813,570.119324 590.956360,557.483826 589.988708,544.841248 
	C588.630371,527.093201 587.300964,509.342957 585.946045,491.594666 
	C584.956421,478.631409 583.716492,465.682343 583.001648,452.704163 
	C582.082214,436.014221 581.262878,419.306885 580.975525,402.597107 
	C580.650879,383.713776 580.467896,364.801514 581.152649,345.935516 
	C581.730957,330.002380 583.650085,314.118530 584.947693,298.210541 
	C585.335938,293.450806 585.644226,288.684326 585.963623,283.919250 
	C586.988647,268.625153 587.955627,253.327042 589.033447,238.036713 
	C589.959900,224.893631 591.007080,211.759079 592.001892,198.620834 
	C593.332458,181.047256 594.661438,163.473572 595.995972,145.900299 
	C596.992615,132.776703 597.951050,119.649971 599.009644,106.531357 
	C600.292725,90.631104 600.957703,74.638931 603.170410,58.866127 
	C606.097290,38.001923 616.116272,20.792150 635.080200,10.677616 
	C652.278564,1.504732 667.055420,3.187067 683.478760,16.154476 
	C699.432922,28.751383 706.793091,45.954987 708.057800,66.096260 
	C709.162109,83.683144 710.713257,101.242027 712.075562,118.812622 
	C713.412598,136.056763 714.812988,153.296173 716.089172,170.544785 
	C717.476868,189.300903 718.713623,208.068176 720.093079,226.824936 
	C720.997620,239.124054 722.055298,251.411865 723.014526,263.707062 
	C724.372314,281.111603 725.750854,298.514740 727.026123,315.925385 
	C727.785217,326.288940 728.672180,336.657227 728.957153,347.038361 
	C729.508911,367.133514 730.328857,387.255585 729.826233,407.336151 
	C729.277100,429.274811 727.363159,451.179596 726.030762,473.098328 
	C725.370056,483.966095 724.812561,494.842316 723.970398,505.696289 
	C722.786682,520.951050 721.367859,536.187500 720.079346,551.434326 
	C719.676514,556.201599 719.326172,560.974243 719.027832,565.749207 
	C718.327698,576.953857 717.774475,588.168640 716.977539,599.366150 
	C715.727173,616.935913 714.325867,634.494873 712.986450,652.058350 
	C711.983887,665.205688 711.130066,678.366699 709.925781,691.495605 
	C708.954895,702.080872 708.142822,712.735107 706.213135,723.165039 
	C703.429382,738.210876 695.334595,750.466248 683.646057,760.787720 
M647.026855,336.061890 
	C646.108887,336.376038 645.213623,336.826508 644.269531,336.983826 
	C630.734192,339.239624 620.212708,346.855560 612.500122,357.447571 
	C598.403015,376.807617 599.141541,403.790131 615.177124,422.527405 
	C634.976501,445.662537 669.694275,447.831909 692.145874,426.141052 
	C706.008789,412.747955 710.886292,395.655640 706.769653,376.845886 
	C703.558411,362.172943 695.186951,350.699738 681.882507,342.908539 
	C671.241394,336.677002 659.842346,335.399292 647.026855,336.061890 
M642.469177,624.007385 
	C641.653442,624.745300 640.722900,625.390503 640.040283,626.235840 
	C634.959595,632.527893 634.511963,642.875732 639.023926,648.497314 
	C645.726440,656.848206 656.187439,659.502930 664.234131,655.208130 
	C670.918274,651.640564 676.569458,641.545105 673.819397,632.340210 
	C669.747803,618.712219 651.649597,614.669495 642.469177,624.007385 
M650.264221,220.669464 
	C652.575562,220.779083 654.894409,221.065750 657.196838,220.967514 
	C666.862366,220.555115 676.209778,209.825256 674.826355,200.672882 
	C673.527222,192.077682 668.883362,185.548355 660.482788,183.411560 
	C652.970581,181.500702 646.125366,183.345474 640.353088,189.864014 
	C631.407959,199.965576 636.991821,216.716248 650.264221,220.669464 
M672.958008,130.900223 
	C666.549438,116.892654 649.557800,117.320923 641.711548,124.886360 
	C634.637085,131.707626 633.988892,142.621964 639.841309,150.262451 
	C645.575867,157.749054 656.077393,160.378601 663.923096,155.961670 
	C671.164795,151.884735 677.764587,142.496780 672.958008,130.900223 
M638.925110,691.569031 
	C638.370239,692.179810 637.552490,692.697693 637.299316,693.414978 
	C632.067566,708.234680 643.305664,722.406738 657.902832,720.070679 
	C665.484741,718.857239 672.203674,713.326172 673.986694,705.903381 
	C675.858459,698.110901 672.804871,690.351074 666.782349,685.916748 
	C656.950378,678.677368 644.778320,682.189941 638.925110,691.569031 
M638.371216,66.152283 
	C634.511292,74.098381 635.156250,81.673195 640.974670,88.321609 
	C645.820496,93.858681 652.098083,95.753159 659.432190,94.032516 
	C668.460999,91.914253 673.397217,86.074699 674.713928,75.398048 
	C675.663208,67.700615 668.280090,59.213974 658.901733,56.453144 
	C652.105286,54.452377 643.186340,58.529373 638.371216,66.152283 
M657.033386,555.629272 
	C655.823486,555.750854 654.615967,555.944031 653.403381,555.983032 
	C639.871216,556.418335 631.479492,572.388000 638.345703,583.976440 
	C642.470093,590.937500 652.181885,595.783875 659.515503,593.795044 
	C667.884583,591.525330 675.747009,582.051453 674.769714,574.263794 
	C673.555481,564.588196 667.908752,557.159607 657.033386,555.629272 
z"/>
<path fill="#000000" opacity="1.000000" stroke="none" 
	d="
M844.999390,479.000000 
	C845.288818,451.902191 845.674988,425.305023 845.838989,398.706421 
	C845.986084,374.844543 846.006714,350.980469 845.862305,327.118652 
	C845.745728,307.856049 845.104126,288.595856 845.065369,269.333832 
	C845.037292,255.395035 845.691101,241.456146 845.897095,227.515182 
	C846.037903,217.991180 845.927246,217.978134 855.428162,217.978928 
	C902.912659,217.982895 950.397095,217.993347 997.881592,218.001495 
	C999.369629,218.001755 1000.857727,218.001526 1002.689941,218.001526 
	C1002.689941,268.226318 1002.689941,318.281250 1002.689941,368.999725 
	C997.805725,368.999725 992.717346,368.999237 987.629028,368.999817 
	C979.798218,369.000641 971.950806,368.694885 964.142883,369.118256 
	C959.428589,369.373901 956.309204,367.991669 953.543518,364.145874 
	C941.757874,347.756866 916.326843,345.195587 900.529358,358.066162 
	C884.185791,371.381714 880.777527,394.000977 893.229675,411.184631 
	C903.671936,425.594818 925.703552,432.842987 943.113159,421.256226 
	C947.626282,418.252594 951.190979,413.848663 955.346741,410.268433 
	C956.595825,409.192383 958.362915,408.097015 959.905273,408.078888 
	C974.055481,407.912170 988.208496,407.980713 1002.685791,407.980713 
	C1002.685791,458.130066 1002.685791,508.204620 1002.685791,558.651245 
	C950.757874,558.651245 898.575256,558.651245 844.999390,558.651245 
	C844.999390,532.266785 844.999390,505.883392 844.999390,479.000000 
z"/>
<path fill="#000000" opacity="1.000000" stroke="none" 
	d="
M9.000323,232.006073 
	C9.000323,227.194473 9.000323,222.881317 9.000323,218.245071 
	C61.271843,218.245071 113.339554,218.245071 165.756821,218.245071 
	C165.756821,331.546021 165.756821,444.943756 165.756821,558.684204 
	C113.815674,558.684204 61.744171,558.684204 9.336071,558.684204 
	C9.336071,508.788330 9.336071,458.720306 9.336071,408.269135 
	C10.364651,408.188324 11.623888,408.006989 12.883664,408.003174 
	C25.548819,407.964783 38.216064,407.841461 50.877068,408.063873 
	C52.727528,408.096405 55.111366,409.359650 56.297680,410.823761 
	C71.816521,429.977051 96.548737,433.245392 114.395561,415.711731 
	C134.832275,395.633636 128.285492,363.554840 101.793037,352.606720 
	C86.523972,346.296722 68.446243,350.133728 57.364948,365.077332 
	C55.340336,367.807617 52.880695,369.244690 48.988945,369.138092 
	C35.856468,368.778381 22.708027,369.001129 9.000323,369.001129 
	C9.000323,323.356873 9.000323,277.930695 9.000323,232.006073 
z"/>
<path fill="#000000" opacity="1.000000" stroke="none" 
	d="
M522.213196,313.910828 
	C530.381287,300.430298 539.641235,288.163361 551.004211,277.652893 
	C557.071533,272.040710 563.795654,267.138580 571.044128,261.249084 
	C570.431641,268.735016 569.925659,275.038239 569.397217,281.339569 
	C568.957031,286.589081 568.390381,291.830017 568.056030,297.085968 
	C567.311584,308.787903 566.408081,320.488708 566.052612,332.204620 
	C565.227356,359.406464 564.171875,386.617798 564.216797,413.823639 
	C564.246216,431.633179 565.982971,449.443054 567.062805,467.246246 
	C567.580627,475.784760 568.282227,484.313843 569.023682,492.836487 
	C569.631287,499.822113 570.420959,506.791870 570.086609,514.543213 
	C565.168091,510.641113 560.012878,506.999390 555.377319,502.785950 
	C543.630371,492.108612 532.996277,480.415649 525.104492,466.523834 
	C523.021729,462.857574 520.354919,461.908722 516.314209,461.953979 
	C497.984985,462.159363 479.652008,461.994507 461.320587,462.046692 
	C443.249237,462.098175 427.288788,456.800629 413.255554,445.002716 
	C398.465790,432.568726 389.634491,416.805786 387.255280,398.085907 
	C384.816650,378.898621 388.900818,360.639221 400.767365,344.752228 
	C412.246735,329.383636 427.197266,318.941284 446.280457,316.185669 
	C458.796143,314.378418 471.606384,314.406769 484.296814,314.072449 
	C496.787140,313.743408 509.292786,313.993958 522.213196,313.910828 
z"/>
<path fill="#010101" opacity="1.000000" stroke="none" 
	d="
M784.771545,308.358276 
	C793.129333,322.842377 799.711975,337.614594 803.357178,353.668884 
	C807.333252,371.180634 807.949158,388.752502 806.086304,406.565277 
	C804.435852,422.346313 800.088013,437.392456 793.565613,451.671661 
	C787.782349,464.332794 780.643616,476.429535 770.863647,486.537415 
	C761.447083,496.269684 751.543518,505.530762 741.853943,514.998840 
	C741.238464,514.661804 740.622925,514.324707 740.007385,513.987671 
	C740.007385,511.132507 739.797241,508.258484 740.051636,505.426208 
	C740.564209,499.718872 741.539673,494.049194 741.946594,488.337097 
	C742.768066,476.806274 743.416260,465.261444 743.990784,453.715149 
	C744.738831,438.680023 745.389771,423.639648 745.997742,408.598114 
	C746.392517,398.832153 746.913513,389.058990 746.876770,379.290955 
	C746.831299,367.180298 746.501221,355.059357 745.866882,342.965271 
	C745.125122,328.821655 744.010681,314.695282 742.894287,300.574341 
	C741.895935,287.946930 740.675232,275.337128 739.447937,261.543335 
	C758.045593,274.693115 772.831604,289.870911 784.771545,308.358276 
z"/>
<path fill="#010101" opacity="1.000000" stroke="none" 
	d="
M780.255615,502.242798 
	C795.319519,485.754211 806.419495,467.285522 814.049805,446.673218 
	C819.460938,432.055695 823.279297,417.171600 823.057556,401.438232 
	C823.033997,399.767914 823.811584,398.086243 824.793091,396.508392 
	C824.793091,450.485779 824.793091,504.463196 824.793091,558.732910 
	C795.358582,558.732910 765.961914,558.732910 736.448303,558.732910 
	C736.962952,552.158569 737.334167,545.510742 738.102661,538.909119 
	C738.300842,537.206238 739.328003,534.894958 740.684814,534.140076 
	C755.619751,525.830872 768.303040,514.786499 780.255615,502.242798 
z"/>
<path fill="#010101" opacity="1.000000" stroke="none" 
	d="
M794.974060,293.029419 
	C787.301941,283.659119 780.275330,274.046997 771.879944,265.834167 
	C764.611938,258.724243 755.797791,253.192734 747.652222,246.983017 
	C744.801270,244.809570 740.871094,243.262421 739.301147,240.403732 
	C737.467957,237.065689 737.607117,232.616089 737.025696,228.629059 
	C736.647949,226.039032 736.487244,223.415802 736.273254,220.803864 
	C735.981079,217.236267 738.651794,218.010574 740.599548,218.004883 
	C755.087158,217.962540 769.574951,217.979767 784.062683,217.979141 
	C797.526672,217.978561 810.990662,217.979019 824.765869,217.979019 
	C824.765869,272.608124 824.765869,326.982635 824.765869,381.357147 
	C824.559692,381.388641 824.353577,381.420135 824.147400,381.451630 
	C823.763977,378.783173 823.066956,376.116943 823.047852,373.445831 
	C822.919800,355.559601 818.323669,338.658997 810.988159,322.594666 
	C806.392395,312.530334 800.394165,303.106445 794.974060,293.029419 
z"/>
<path fill="#010101" opacity="1.000000" stroke="none" 
	d="
M640.177246,354.008423 
	C662.555420,344.166351 687.580811,358.391296 692.180420,381.376007 
	C696.931091,405.115479 677.051697,427.588470 652.606750,425.919983 
	C632.208618,424.527771 618.401855,407.004364 617.993835,389.628693 
	C617.604431,373.045837 625.398804,361.536835 640.177246,354.008423 
z"/>
</svg>