<svg version="1.1" id="Layer_1" xmlns="http://www.w3.org/2000/svg" xmlns:xlink="http://www.w3.org/1999/xlink" x="0px" y="0px"
	 width="100%" viewBox="0 0 1024 1024" enable-background="new 0 0 1024 1024" xml:space="preserve">
<path fill="#000000" opacity="1.000000" stroke="none" 
	d="
M570.557251,250.475464 
	C548.374268,243.938080 526.205627,242.244537 503.547180,244.036713 
	C475.045166,246.291031 449.211609,255.364822 426.717651,272.964050 
	C407.347351,288.119324 394.583374,308.291840 385.374207,330.855316 
	C380.648651,342.433441 376.954041,354.345093 374.450439,366.585815 
	C373.613586,370.677490 371.624207,371.607330 367.805420,371.112671 
	C341.787415,367.742340 315.751984,364.506622 289.724091,361.212463 
	C273.911224,359.211151 258.107941,357.132050 242.286530,355.201141 
	C238.062302,354.685547 236.279785,352.950623 236.768433,348.398560 
	C242.365646,296.258942 263.357086,251.480865 299.465057,213.353500 
	C336.776917,173.954926 381.972504,149.336929 434.818634,138.263199 
	C469.396393,131.017548 504.315735,129.363327 539.542603,131.514450 
	C569.408020,133.338165 598.638184,138.205261 627.110046,147.470657 
	C668.461670,160.927429 704.462402,182.938675 734.269653,214.742935 
	C761.981140,244.311020 781.472473,278.248474 788.088623,318.699982 
	C794.633789,358.717804 788.093384,396.475525 767.876709,431.817657 
	C758.127502,448.860809 746.057922,464.056061 732.581787,478.223267 
	C704.865479,507.360931 674.262024,533.275269 643.323669,558.867737 
	C626.004822,573.194092 609.471375,588.459473 595.526672,606.286926 
	C585.883484,618.615173 581.416443,632.778137 579.232361,648.049377 
	C576.885681,664.457275 577.144897,680.915955 577.288147,697.381775 
	C577.327942,701.944214 575.827026,703.413269 571.239502,703.397217 
	C530.081604,703.252930 488.922913,703.266357 447.764862,703.382446 
	C443.752045,703.393738 442.016876,702.083191 441.860352,698.062378 
	C440.556732,664.573181 440.906891,631.245483 449.583923,598.507324 
	C457.119690,570.075256 471.210449,545.407288 490.626862,523.423401 
	C512.252319,498.938354 537.527344,478.592651 562.664246,458.020416 
	C583.535950,440.938873 604.951050,424.383118 623.376282,404.598999 
	C637.044556,389.922607 644.588928,372.101715 645.707642,351.876251 
	C648.085388,308.888458 626.198608,280.120392 591.096436,259.228241 
	C584.787964,255.473587 577.952515,252.783997 570.557251,250.475464 
z"/>
<path fill="#000000" opacity="1.000000" stroke="none" 
	d="
M577.075317,895.681519 
	C576.319092,898.552307 574.309387,898.298035 572.514954,898.298645 
	C530.683716,898.312378 488.852325,898.251099 447.021423,898.371094 
	C441.801910,898.386047 442.065765,895.167358 442.064270,891.755798 
	C442.054260,869.090271 442.054413,846.424744 442.054688,823.759216 
	C442.054932,802.760254 442.049255,781.761353 442.067566,760.762390 
	C442.073883,753.493713 442.453766,753.071716 449.638153,753.069031 
	C489.636139,753.054077 529.634155,753.063110 569.632141,753.090515 
	C576.938110,753.095520 577.211121,753.416199 577.208313,760.724060 
	C577.191101,805.554626 577.168274,850.385254 577.075317,895.681519 
z"/>
</svg>